<svg width="58" height="58" viewBox="0 0 58 58" fill="none" xmlns="http://www.w3.org/2000/svg">
<g filter="url(#filter0_d_1991_2263)">
<path d="M27.6005 9C24.2612 9 21.5701 11.5963 21.5701 14.8218C21.5701 18.0472 24.2612 20.6461 27.6005 20.6461C30.9397 20.6461 33.628 18.0472 33.628 14.8216C33.628 11.5963 30.9397 9 27.6005 9ZM27.3709 11.8527C27.381 11.8525 27.391 11.8531 27.401 11.8527C25.0534 16.3964 31.9849 17.4787 30.9558 12.6155C31.3293 12.7669 31.7217 12.9396 32.1387 13.1354C32.4724 14.4239 32.4491 15.7388 31.934 17.028C27.8523 17.9575 27.2078 17.9593 23.3326 16.8933C22.8653 15.648 22.8054 14.3799 23.1276 13.1353C24.82 12.3278 26.1067 11.9014 27.3708 11.8525L27.3709 11.8527ZM35.8904 17.4239C35.7802 17.4213 35.4884 17.4872 35.046 17.8144C35.0455 17.8149 35.0441 17.8139 35.0434 17.8144C34.8204 17.9795 34.5936 18.1397 34.3632 18.2948C33.0722 20.6291 30.5243 22.2242 27.6005 22.2242C24.6802 22.2242 22.1339 20.6327 20.8407 18.3026C20.5743 18.1625 20.3093 18.02 20.0457 17.8752C19.6394 17.652 19.4013 17.6366 19.2887 17.6561C19.176 17.6755 19.0987 17.7145 18.969 17.9094C18.7097 18.2993 18.5042 19.2938 18.5619 20.4455C18.6196 21.5974 18.8943 22.9094 19.327 24.0189C19.7596 25.1284 20.3724 26.0182 20.9144 26.3809C25.357 29.3529 29.6041 28.7014 34.1608 26.3359C34.7191 26.0462 35.3771 25.1733 35.8329 24.0162C36.2889 22.8593 36.5674 21.4542 36.6146 20.2293C36.6616 19.0042 36.4142 17.9508 36.1582 17.6033C36.0302 17.4295 36.0008 17.4263 35.8904 17.4239V17.4239ZM16.9225 19.4401C15.1186 20.2204 13.6911 21.6212 12.5809 23.5438C12.9664 23.5593 13.3485 23.6149 13.7175 23.71C14.786 23.9853 15.6858 24.575 16.346 25.3462C16.7462 24.9214 17.1831 24.5303 17.6521 24.1771C17.2395 22.9987 16.9878 21.7163 16.9281 20.522C16.9094 20.1511 16.9054 19.7889 16.9225 19.4399V19.4401ZM38.1446 21.488C38.0065 22.5356 37.7431 23.6041 37.3603 24.5757C37.1494 25.1113 36.9063 25.6223 36.6171 26.0826C36.931 26.4254 37.2243 26.7894 37.4941 27.1779C37.6969 26.871 37.9333 26.5861 38.1992 26.3281V26.3255C38.9144 25.6347 39.7946 25.1931 40.7211 24.9954C40.0155 23.5733 39.1629 22.3952 38.1444 21.4881L38.1446 21.488ZM12.3812 25.1219C11.4471 25.1256 10.4989 25.474 9.90571 26.1591C9.28248 26.8788 8.94061 28.0391 9.4521 29.8221C9.46399 29.8142 9.47571 29.806 9.48769 29.7984C10.1968 29.3362 11.0827 29.0747 12.0396 29.1175C12.3585 29.1317 12.6864 29.1794 13.0178 29.2653C13.9465 29.5056 14.6928 29.9862 15.2281 30.5926C15.8799 29.754 16.0334 28.8297 15.8676 27.9615C15.6257 26.6958 14.6518 25.5846 13.2964 25.2354C12.9979 25.1588 12.6901 25.1206 12.3812 25.1219V25.1219ZM41.8029 26.4546C41.7408 26.4557 41.6793 26.4584 41.6171 26.4626C40.7882 26.5177 39.9751 26.8428 39.3547 27.4418C38.4922 28.2767 38.0678 29.6224 38.4913 30.7406C38.8253 31.6223 39.6928 32.4886 41.5489 32.9521C41.5476 32.9372 41.5445 32.9222 41.5434 32.9074C41.4638 31.8087 41.8611 30.6298 42.8304 29.6929L42.8302 29.6903C43.5099 29.0344 44.3143 28.6526 45.1254 28.508C44.6996 27.5428 43.9488 26.9508 43.0871 26.6554C42.6749 26.5148 42.2399 26.4469 41.8029 26.4548V26.4546ZM32.9338 28.6478C29.4455 30.0596 25.8361 30.4294 22.286 28.9275L21.4061 32.2472C22.1849 32.4799 22.8415 32.9082 23.3296 33.4506C23.9727 34.1652 24.3447 35.0539 24.4554 35.9684C26.6614 32.6266 30.5925 33.9235 31.6168 38.4332C28.9809 40.4864 28.9042 45.0634 31.8328 46.8757C33.0551 45.3872 34.8233 44.3684 36.669 44.1099C36.9336 44.0728 37.2015 44.0542 37.4695 44.0518C37.5588 44.0508 37.6481 44.0517 37.7373 44.0545C38.3701 44.077 39.0014 44.2011 39.6008 44.4398C40.064 43.0824 39.9569 41.5142 39.322 40.2041C38.6538 40.5967 37.828 40.8296 36.8876 40.8296C35.4327 40.8296 34.2514 40.2752 33.5049 39.4282C32.7587 38.5814 32.4343 37.4891 32.464 36.4198C32.4937 35.3505 32.8741 34.2824 33.6225 33.4509C33.7502 33.3097 33.8881 33.1774 34.0352 33.0551L32.934 28.6479L32.9338 28.6478ZM45.7812 30.0174C45.1641 30.0314 44.5598 30.2496 43.9833 30.8065C43.3246 31.4427 43.1221 32.114 43.1719 32.7988C43.2214 33.4837 43.5642 34.1847 44.0844 34.7148C44.6046 35.2452 45.2856 35.5909 45.9669 35.6438C46.6484 35.6966 47.356 35.4977 48.0983 34.7807C48.8404 34.0639 49.0465 33.3805 48.9917 32.7223C48.937 32.0642 48.579 31.4066 48.0299 30.9041C47.481 30.4017 46.7553 30.0706 46.0463 30.0226C45.9582 30.0169 45.8698 30.0151 45.7814 30.0173L45.7812 30.0174ZM11.8431 30.6824C11.2877 30.6738 10.8175 30.8374 10.403 31.1072C9.81391 31.4912 9.35619 32.1276 9.14084 32.828C8.92548 33.5283 8.95408 34.2689 9.24751 34.8653C9.54067 35.4619 10.0751 35.9568 11.0889 36.2193C12.1029 36.4817 12.8187 36.3092 13.3814 35.9343C13.9441 35.5593 14.353 34.932 14.529 34.2215C14.705 33.511 14.6383 32.7379 14.3268 32.1208C14.0152 31.5039 13.4944 31.0238 12.5945 30.7907C12.3695 30.7326 12.1567 30.6992 11.9551 30.6879C11.9173 30.6858 11.8802 30.6832 11.8432 30.6826L11.8431 30.6824ZM20.0646 33.6329C19.133 33.6329 18.4981 33.9672 18.0317 34.4853C17.5657 35.0036 17.2953 35.7318 17.275 36.4621C17.2547 37.1923 17.4822 37.9016 17.9255 38.4044C18.3685 38.9072 19.0151 39.2515 20.0648 39.2515C21.1145 39.2515 21.761 38.9072 22.2042 38.4044C22.6473 37.9016 22.8748 37.1923 22.8545 36.4621C22.8341 35.7318 22.5612 35.0037 22.0949 34.4854C21.6286 33.9674 20.9964 33.6331 20.0646 33.6331L20.0646 33.6329ZM36.8877 33.6329C35.956 33.6329 35.3211 33.9672 34.8548 34.4853C34.3885 35.0036 34.1183 35.7318 34.098 36.4621C34.0776 37.1923 34.3052 37.9016 34.7482 38.4044C35.1913 38.9072 35.8379 39.2515 36.8877 39.2515C37.9373 39.2515 38.584 38.9072 39.027 38.4044C39.4703 37.9016 39.6976 37.1923 39.6773 36.4621C39.657 35.7318 39.384 35.0037 38.9177 34.4854C38.4515 33.9674 37.8193 33.6331 36.8877 33.6331V33.6329ZM16.3078 38.9295C14.9863 40.334 14.5559 42.4704 15.1056 44.2762C15.5585 44.1434 16.0259 44.071 16.4936 44.0545C16.5827 44.0512 16.6719 44.0511 16.7613 44.0519C17.0293 44.054 17.2973 44.0728 17.5618 44.1099C19.4908 44.3801 21.3371 45.4793 22.562 47.0788C25.5855 45.5676 25.8583 41.3483 23.7643 39.0138C23.6683 39.1565 23.5635 39.2963 23.4473 39.4281C22.7009 40.2752 21.5196 40.8295 20.0646 40.8295C18.6097 40.8295 17.4285 40.2751 16.6821 39.4281C16.5443 39.2714 16.4192 39.1046 16.3078 38.9294V38.9295ZM16.5535 45.6274C15.7942 45.6494 15.08 45.8774 14.4443 46.353C13.754 46.8695 13.1349 47.7121 12.7201 49H21.8351C20.9436 47.2431 19.1008 45.9206 17.327 45.6722C17.0651 45.6355 16.8067 45.62 16.5536 45.6274H16.5535ZM37.486 45.6274C37.2943 45.6303 37.1004 45.6446 36.904 45.6722C35.1302 45.9206 33.2874 47.2431 32.3959 49H41.5109C41.0961 47.7121 40.4771 46.8695 39.7867 46.353C39.1511 45.8776 38.4367 45.6493 37.6774 45.6273C37.6136 45.6258 37.5498 45.6258 37.4861 45.6273L37.486 45.6274Z" fill="#DBDBDB"/>
</g>
<defs>
<filter id="filter0_d_1991_2263" x="1" y="9" width="48" height="49" filterUnits="userSpaceOnUse" color-interpolation-filters="sRGB">
<feFlood flood-opacity="0" result="BackgroundImageFix"/>
<feColorMatrix in="SourceAlpha" type="matrix" values="0 0 0 0 0 0 0 0 0 0 0 0 0 0 0 0 0 0 127 0" result="hardAlpha"/>
<feOffset dx="-4" dy="5"/>
<feGaussianBlur stdDeviation="2"/>
<feComposite in2="hardAlpha" operator="out"/>
<feColorMatrix type="matrix" values="0 0 0 0 0 0 0 0 0 0 0 0 0 0 0 0 0 0 0.25 0"/>
<feBlend mode="normal" in2="BackgroundImageFix" result="effect1_dropShadow_1991_2263"/>
<feBlend mode="normal" in="SourceGraphic" in2="effect1_dropShadow_1991_2263" result="shape"/>
</filter>
</defs>
</svg>
