<svg width="58" height="58" viewBox="0 0 58 58" fill="none" xmlns="http://www.w3.org/2000/svg">
<g filter="url(#filter0_d_1991_2262)">
<path d="M7.44984 36V21.88H9.64984L10.5898 24.7V36H7.44984ZM17.1898 36L8.86984 25.34L9.64984 21.88L17.9698 32.54L17.1898 36ZM17.1898 36L16.3498 33.18V21.88H19.4898V36H17.1898ZM22.2155 36V21.88H25.3555V36H22.2155ZM24.6155 30.46V27.76H31.6755V30.46H24.6155ZM24.6155 24.58V21.88H31.9955V24.58H24.6155ZM37.0231 36V22.08H40.1631V36H37.0231ZM32.6031 24.62V21.88H44.5831V24.62H32.6031ZM47.37 36.24C46.7967 36.24 46.23 36.1667 45.67 36.02C45.1233 35.8733 44.61 35.6667 44.13 35.4C43.6633 35.12 43.2633 34.8 42.93 34.44L44.67 32.68C44.99 33.0267 45.37 33.3 45.81 33.5C46.25 33.6867 46.73 33.78 47.25 33.78C47.61 33.78 47.8833 33.7267 48.07 33.62C48.27 33.5133 48.37 33.3667 48.37 33.18C48.37 32.94 48.25 32.76 48.01 32.64C47.7833 32.5067 47.49 32.3933 47.13 32.3C46.77 32.1933 46.39 32.08 45.99 31.96C45.59 31.84 45.21 31.6733 44.85 31.46C44.49 31.2467 44.1967 30.9533 43.97 30.58C43.7433 30.1933 43.63 29.7067 43.63 29.12C43.63 28.4933 43.79 27.9533 44.11 27.5C44.43 27.0333 44.8833 26.6667 45.47 26.4C46.0567 26.1333 46.7433 26 47.53 26C48.3567 26 49.1167 26.1467 49.81 26.44C50.5167 26.72 51.09 27.14 51.53 27.7L49.79 29.46C49.4833 29.1 49.1367 28.8467 48.75 28.7C48.3767 28.5533 48.01 28.48 47.65 28.48C47.3033 28.48 47.0433 28.5333 46.87 28.64C46.6967 28.7333 46.61 28.8733 46.61 29.06C46.61 29.26 46.7233 29.42 46.95 29.54C47.1767 29.66 47.47 29.7667 47.83 29.86C48.19 29.9533 48.57 30.0667 48.97 30.2C49.37 30.3333 49.75 30.5133 50.11 30.74C50.47 30.9667 50.7633 31.2733 50.99 31.66C51.2167 32.0333 51.33 32.5267 51.33 33.14C51.33 34.0867 50.97 34.84 50.25 35.4C49.5433 35.96 48.5833 36.24 47.37 36.24Z" fill="#DBDBDB"/>
</g>
<defs>
<filter id="filter0_d_1991_2262" x="0.450195" y="21.8789" width="52.0801" height="22.3594" filterUnits="userSpaceOnUse" color-interpolation-filters="sRGB">
<feFlood flood-opacity="0" result="BackgroundImageFix"/>
<feColorMatrix in="SourceAlpha" type="matrix" values="0 0 0 0 0 0 0 0 0 0 0 0 0 0 0 0 0 0 127 0" result="hardAlpha"/>
<feOffset dx="-3" dy="4"/>
<feGaussianBlur stdDeviation="2"/>
<feComposite in2="hardAlpha" operator="out"/>
<feColorMatrix type="matrix" values="0 0 0 0 0 0 0 0 0 0 0 0 0 0 0 0 0 0 0.1 0"/>
<feBlend mode="normal" in2="BackgroundImageFix" result="effect1_dropShadow_1991_2262"/>
<feBlend mode="normal" in="SourceGraphic" in2="effect1_dropShadow_1991_2262" result="shape"/>
</filter>
</defs>
</svg>
