<svg width="58" height="58" viewBox="0 0 58 58" fill="none" xmlns="http://www.w3.org/2000/svg">
<g filter="url(#filter0_d_1991_2260)">
<path d="M19.0298 9.00038C16.3924 9.02044 14.0178 10.343 12.1166 14.4726C13.3463 15.2928 14.3128 16.7311 15.0454 18.519C17.0089 16.3756 19.0464 15.7174 21.0009 15.6502C21.0953 15.6469 21.1898 15.644 21.2839 15.6434C21.9426 15.639 22.5911 15.6968 23.2232 15.7844L23.0539 17.8336C20.4712 17.4753 18.1878 17.4845 15.7281 20.4818C16.0069 21.4351 16.2395 22.4592 16.4371 23.5366C17.6728 22.544 18.9344 22.1948 20.1676 22.1866C20.2689 22.1859 20.371 22.1862 20.4719 22.1899C21.44 22.2263 22.3874 22.461 23.2869 22.7513L22.9059 24.7487C20.6991 24.0368 18.8134 23.6919 16.7785 25.7301C16.8758 26.4733 16.9578 27.2197 17.0246 27.9686C17.0578 28.3431 17.0849 28.7209 17.1118 29.1015C17.8835 28.6827 18.6653 28.4914 19.4294 28.4748C19.5949 28.4715 19.7604 28.4768 19.9241 28.4887C21.233 28.5842 22.4745 29.1186 23.6704 29.7216L23.099 31.6432C21.9577 31.0679 20.8649 30.6198 19.8368 30.5448C18.947 30.4798 18.1094 30.6633 17.2334 31.3059C17.2913 32.8138 17.3044 34.3497 17.2758 35.8859C18.6461 35.9652 20.1219 35.894 21.5325 35.6725L21.9559 35.6071L22.231 36.0307C23.7893 38.4397 24.7992 42.1403 24.9455 47.2713C25.8673 47.1134 26.7824 46.8592 27.7024 46.4586C25.5703 35.2098 24.8224 23.8429 27.6733 12.4575C25.0316 10.6615 22.0283 9.06772 19.2865 9.00347C19.201 9.00149 19.115 8.99939 19.0299 9.00016L19.0298 9.00038ZM37.6474 10.7773C36.3148 10.7813 35.0398 11.0872 33.9937 11.6521C32.564 12.4241 31.608 13.6148 31.2871 15.1648C33.2951 26.4506 32.4455 34.9959 31.3375 46.3899C31.8167 46.5707 32.4161 46.73 33.0942 46.8686C33.4328 41.5393 35.3313 37.3705 37.8115 34.984L38.1767 34.6327L38.5947 34.8668C39.3029 35.2625 40.2478 35.5455 41.3225 35.7176C41.2827 35.1236 41.25 34.5289 41.2244 33.9336C39.297 32.0016 36.8413 32.06 34.6288 32.9212L34.1763 30.9479C35.1333 30.5755 36.1694 30.3289 37.2216 30.3004C38.5549 30.264 39.9139 30.5828 41.1663 31.4472C41.1648 30.6794 41.179 29.9288 41.2139 29.2018C41.2382 28.6938 41.2737 28.1983 41.317 27.7141C39.4014 25.4362 37.492 25.586 35.2373 26.0714L34.9808 24.0392C35.5902 23.9081 36.218 23.8039 36.8565 23.7673C36.9761 23.7604 37.0959 23.7554 37.2163 23.7535C38.6911 23.7317 40.2044 24.1139 41.6265 25.4065C41.8381 24.2891 42.1344 23.2772 42.5472 22.407C40.311 19.3082 38.0625 19.0692 35.5071 19.1594L35.4647 17.1034C35.6464 17.0971 35.8284 17.094 36.0125 17.0931C36.1965 17.0922 36.3825 17.0934 36.5681 17.1C38.9048 17.1831 41.3684 17.9074 43.5844 20.8434C44.4636 19.9278 45.6272 19.4923 46.9709 19.6622C46.6517 17.2193 45.7755 15.3602 44.5713 13.956C43.1591 12.3093 41.2756 11.3061 39.354 10.9391C38.789 10.8305 38.2185 10.7764 37.6474 10.7772V10.7773ZM12.8045 36.9815C10.754 39.158 9.14503 42.9126 9 47.8569C11.8797 49.1736 16.025 49.6216 23.3634 47.733C23.2699 43.0454 22.4273 39.8061 21.2627 37.7771C18.2347 38.1944 15.0757 38.0474 12.8046 36.9814L12.8045 36.9815ZM38.4412 36.9815C36.3915 39.1582 34.7816 42.9137 34.6366 47.8569C37.516 49.1739 41.6624 49.6211 49 47.733C48.9064 43.045 48.0641 39.8061 46.8994 37.7771C43.872 38.194 40.7116 38.0471 38.4412 36.9814V36.9815Z" fill="#DBDBDB"/>
</g>
<defs>
<filter id="filter0_d_1991_2260" x="1" y="9" width="48" height="49" filterUnits="userSpaceOnUse" color-interpolation-filters="sRGB">
<feFlood flood-opacity="0" result="BackgroundImageFix"/>
<feColorMatrix in="SourceAlpha" type="matrix" values="0 0 0 0 0 0 0 0 0 0 0 0 0 0 0 0 0 0 127 0" result="hardAlpha"/>
<feOffset dx="-4" dy="5"/>
<feGaussianBlur stdDeviation="2"/>
<feComposite in2="hardAlpha" operator="out"/>
<feColorMatrix type="matrix" values="0 0 0 0 0 0 0 0 0 0 0 0 0 0 0 0 0 0 0.25 0"/>
<feBlend mode="normal" in2="BackgroundImageFix" result="effect1_dropShadow_1991_2260"/>
<feBlend mode="normal" in="SourceGraphic" in2="effect1_dropShadow_1991_2260" result="shape"/>
</filter>
</defs>
</svg>
