<svg width="58" height="58" viewBox="0 0 58 58" fill="none" xmlns="http://www.w3.org/2000/svg">
<g filter="url(#filter0_d_1991_2255)">
<path d="M15.7976 9.0002C15.4586 10.5163 15.3926 11.9129 15.7377 13.1955H24.7734V9H15.7975L15.7976 9.0002ZM26.3119 9.0002V13.1955H31.6702V9H29.7603V10.9894H28.2218V9.0002H26.312H26.3119ZM33.2087 9.0002V13.1955H42.1239C42.3102 11.7684 42.2906 10.378 42.1196 9H33.2088L33.2087 9.0002ZM15.721 14.9679C14.4218 18.6868 13.1607 22.6333 12.092 26.6178C13.9914 27.5209 16.0126 27.9019 18.1071 28.2185L19.0182 28.3563L17.4435 34.0694L17.1674 34.0798C16.4607 36.8631 15.8927 39.7221 15.7364 42.9221L15.6983 43.7014L15.0226 43.7563C12.7319 43.9424 10.8739 43.1872 9.22137 42.2069C9.1318 43.3837 9.08034 44.5403 9.0741 45.6694C9.80891 47.141 11.6263 48.0547 14.0303 48.5169C16.3522 48.9634 19.0937 48.9972 21.5515 49C23.3349 42.94 26.5856 33.5623 28.3027 29.6001L28.6467 28.806C28.456 28.7263 27.9787 28.5185 27.4431 28.2175C26.7534 27.8296 25.9542 27.3724 25.4755 26.4849C24.6815 25.0129 24.6031 22.9556 24.6092 21.1876C24.6152 19.4198 24.7793 17.9477 24.7793 17.9477L24.8771 17.0688L26.403 17.2936L26.3054 18.1726C26.3054 18.1726 26.1532 19.5491 26.1476 21.1946C26.1419 22.8399 26.3568 24.7612 26.7818 25.5493C26.8917 25.7529 27.5235 26.2903 28.1178 26.6244C28.7118 26.9585 29.2403 27.1679 29.2403 27.1679L29.9681 27.4554L29.4719 29.1219L29.6791 29.5998C31.3962 33.562 34.6469 42.9397 36.4303 48.9998C38.8881 48.9971 41.6296 48.9634 43.9514 48.5168C46.3552 48.0547 48.1727 47.1411 48.9076 45.6697C48.9013 44.5457 48.8486 43.3929 48.7575 42.2189C47.1102 43.1932 45.2583 43.9413 42.9773 43.7559L42.3016 43.7011L42.2636 42.9219C42.1071 39.7218 41.5392 36.8628 40.8324 34.0795L40.5563 34.0691L39.2597 29.365L38.9817 28.3558L39.8928 28.2181C41.972 27.904 43.979 27.5259 45.8665 26.637C44.7911 22.6282 43.5315 18.6683 42.2583 14.9675H15.7211L15.721 14.9679ZM10.7764 27.8735C10.4256 28.6925 10.2063 29.5452 10.158 30.4871C11.7418 31.4082 13.7359 32.2873 16.3137 32.3123L16.9998 29.8226C14.9205 29.4792 12.8125 28.9955 10.7765 27.8733L10.7764 27.8735ZM47.2236 27.8735C45.1875 28.9956 43.0795 29.4794 41.0002 29.8227L41.6865 32.3123C44.2641 32.2872 46.2583 31.4081 47.842 30.487C47.7936 29.5451 47.5745 28.6924 47.2235 27.8733L47.2236 27.8735ZM10.2488 32.5147C9.72293 34.9464 9.31061 37.4561 9 40.0363C10.6337 41.1184 12.2372 41.9849 14.2583 42.001C14.4606 39.1385 14.9656 36.5442 15.5769 34.0692C13.4519 33.9251 11.6817 33.2573 10.2488 32.5145V32.5147ZM47.7512 32.5147C46.3183 33.2574 44.5481 33.9252 42.4231 34.0694C43.0344 36.5444 43.5393 39.1386 43.7417 42.001C45.7628 41.9848 47.3663 41.1184 49 40.0361C48.6894 37.456 48.2771 34.9463 47.7512 32.5145V32.5147Z" fill="#DBDBDB"/>
</g>
<defs>
<filter id="filter0_d_1991_2255" x="1" y="9" width="48" height="49" filterUnits="userSpaceOnUse" color-interpolation-filters="sRGB">
<feFlood flood-opacity="0" result="BackgroundImageFix"/>
<feColorMatrix in="SourceAlpha" type="matrix" values="0 0 0 0 0 0 0 0 0 0 0 0 0 0 0 0 0 0 127 0" result="hardAlpha"/>
<feOffset dx="-4" dy="5"/>
<feGaussianBlur stdDeviation="2"/>
<feComposite in2="hardAlpha" operator="out"/>
<feColorMatrix type="matrix" values="0 0 0 0 0 0 0 0 0 0 0 0 0 0 0 0 0 0 0.25 0"/>
<feBlend mode="normal" in2="BackgroundImageFix" result="effect1_dropShadow_1991_2255"/>
<feBlend mode="normal" in="SourceGraphic" in2="effect1_dropShadow_1991_2255" result="shape"/>
</filter>
</defs>
</svg>
