<svg width="58" height="58" viewBox="0 0 58 58" fill="none" xmlns="http://www.w3.org/2000/svg">
<g filter="url(#filter0_d_1991_2252)">
<path d="M29 16C26.2832 16 23.5663 16.1478 20.8496 16.4399H20.5789C20.5761 16.4497 20.5734 16.4595 20.5705 16.4691C19.3178 16.6092 18.067 16.7799 16.8188 16.9812L16.7184 16.9127C16.7073 16.9427 16.6967 16.9726 16.6855 17.0026C15.1286 17.2552 13.5761 17.5547 12.029 17.9009L11.5492 18.0087L11.4043 18.6371C11.3797 18.744 11.3564 18.8494 11.3324 18.9555H10.4035L9 26.5031H10.1167C9.79561 30.6578 10.1789 34.5972 11.4118 39.4309L11.524 39.8719L11.8392 40.0601C16.1683 42.6466 19.3755 42.6466 23.7046 40.0601C25.6597 38.892 26.5989 36.7108 27.2866 35.0686C27.6304 34.2475 27.9275 33.553 28.2011 33.1462C28.4748 32.7394 28.6437 32.6037 29 32.6037C29.3563 32.6037 29.5253 32.7394 29.7989 33.1462C30.0725 33.553 30.3696 34.2475 30.7134 35.0686C31.4011 36.7108 32.3403 38.892 34.2954 40.0601C38.6245 42.6466 41.8317 42.6466 46.1608 40.0601L46.5134 39.8494L46.6076 39.343C47.5025 34.5304 47.8345 30.6346 47.6044 26.5031H49L47.5965 18.9557H46.6551C46.6391 18.8684 46.6239 18.7823 46.6077 18.6946L46.4814 18.0151L45.9709 17.9008C40.3151 16.6336 34.6575 16 29 16V16ZM29 18.1377C34.3975 18.1377 39.7951 18.7367 45.1941 19.909C46.4145 26.765 46.4064 31.4053 45.165 38.3004C41.2957 40.5251 38.8994 40.4735 34.9328 38.1036C33.4635 37.2257 32.7653 35.6334 32.0868 34.0133C31.7475 33.2034 31.4294 32.3945 30.9661 31.7059C30.503 31.0173 29.8132 30.4652 29 30.4652C28.1868 30.4652 27.4971 31.0173 27.0339 31.7059C26.5707 32.3945 26.2525 33.2034 25.9132 34.0134C25.2349 35.6335 24.5366 37.2258 23.0674 38.1037C22.7135 38.3158 22.356 38.5168 21.9953 38.7066C22.237 31.5016 23.6027 24.7322 25.6242 18.2172C26.7496 18.1653 27.8748 18.1376 29.0001 18.1376L29 18.1377ZM19.9486 18.6946C18.1658 25.3897 17.0623 32.45 16.4962 39.7992C15.8099 39.6664 15.1045 39.4286 14.3512 39.0864C14.51 32.0661 15.5195 25.3489 17.7243 19.0004C18.4657 18.8876 19.2073 18.7854 19.9486 18.6946V18.6946ZM15.8907 19.3017C13.9402 25.3529 12.9989 31.7081 12.7939 38.2552C11.0958 31.3691 11.2377 26.8084 12.7746 19.9148C13.8133 19.6891 14.852 19.4848 15.8906 19.3015L15.8907 19.3017Z" fill="#DBDBDB"/>
</g>
<defs>
<filter id="filter0_d_1991_2252" x="1" y="16" width="48" height="35" filterUnits="userSpaceOnUse" color-interpolation-filters="sRGB">
<feFlood flood-opacity="0" result="BackgroundImageFix"/>
<feColorMatrix in="SourceAlpha" type="matrix" values="0 0 0 0 0 0 0 0 0 0 0 0 0 0 0 0 0 0 127 0" result="hardAlpha"/>
<feOffset dx="-4" dy="5"/>
<feGaussianBlur stdDeviation="2"/>
<feComposite in2="hardAlpha" operator="out"/>
<feColorMatrix type="matrix" values="0 0 0 0 0 0 0 0 0 0 0 0 0 0 0 0 0 0 0.25 0"/>
<feBlend mode="normal" in2="BackgroundImageFix" result="effect1_dropShadow_1991_2252"/>
<feBlend mode="normal" in="SourceGraphic" in2="effect1_dropShadow_1991_2252" result="shape"/>
</filter>
</defs>
</svg>
