<svg width="58" height="58" viewBox="0 0 58 58" fill="none" xmlns="http://www.w3.org/2000/svg">
<g filter="url(#filter0_d_1991_2253)">
<path d="M47.632 13.1102C44.112 11.9562 35 8.97022 35 9.00022C35 10.5915 34.3679 12.1176 33.2426 13.2428C32.1174 14.3681 30.5913 15.0002 29 15.0002C27.4087 15.0002 25.8826 14.3681 24.7574 13.2428C23.6321 12.1176 23 10.5915 23 9.00022C23 8.97022 13.888 11.9562 10.366 13.1102C9.96699 13.241 9.61974 13.495 9.37427 13.8357C9.1288 14.1765 8.99776 14.5863 9.00003 15.0062V22.4381C9.00011 22.7419 9.0694 23.0417 9.20264 23.3147C9.33588 23.5878 9.52956 23.8268 9.76899 24.0138C10.0084 24.2008 10.2873 24.3308 10.5845 24.3939C10.8816 24.4571 11.1893 24.4517 11.484 24.3781L17 23.0001V47C17 47.5304 17.2107 48.0391 17.5858 48.4142C17.9609 48.7893 18.4696 49 19 49H39C39.5304 49 40.0391 48.7893 40.4142 48.4142C40.7893 48.0391 41 47.5304 41 47V23.0001L46.516 24.3781C46.8107 24.4517 47.1184 24.4571 47.4155 24.3939C47.7127 24.3308 47.9916 24.2008 48.231 24.0138C48.4704 23.8268 48.6641 23.5878 48.7974 23.3147C48.9306 23.0417 48.9999 22.7419 49 22.4381V15.0062C49.0021 14.586 48.8708 14.176 48.6249 13.8353C48.3791 13.4945 48.0314 13.2407 47.632 13.1102Z" fill="#DBDBDB"/>
</g>
<defs>
<filter id="filter0_d_1991_2253" x="1" y="9" width="48" height="49" filterUnits="userSpaceOnUse" color-interpolation-filters="sRGB">
<feFlood flood-opacity="0" result="BackgroundImageFix"/>
<feColorMatrix in="SourceAlpha" type="matrix" values="0 0 0 0 0 0 0 0 0 0 0 0 0 0 0 0 0 0 127 0" result="hardAlpha"/>
<feOffset dx="-4" dy="5"/>
<feGaussianBlur stdDeviation="2"/>
<feComposite in2="hardAlpha" operator="out"/>
<feColorMatrix type="matrix" values="0 0 0 0 0 0 0 0 0 0 0 0 0 0 0 0 0 0 0.25 0"/>
<feBlend mode="normal" in2="BackgroundImageFix" result="effect1_dropShadow_1991_2253"/>
<feBlend mode="normal" in="SourceGraphic" in2="effect1_dropShadow_1991_2253" result="shape"/>
</filter>
</defs>
</svg>
